<svg width="32" height="28" viewBox="0 0 32 28" fill="none" xmlns="http://www.w3.org/2000/svg">
<path d="M16.6314 8.96042L26.7571 26.5033C27.0085 26.949 27.6485 26.9604 27.9342 26.5376L31.6828 20.7433C31.8199 20.5261 31.8314 20.2519 31.7056 20.0233L20.4828 0.62899C20.2199 0.171847 19.5571 0.171847 19.2942 0.62899L15.9914 6.32042C15.8656 6.53756 15.6371 6.66328 15.3971 6.66328H8.49421C8.24279 6.66328 8.02564 6.78899 7.89993 7.00613L0.37993 20.0576C0.254216 20.2747 0.254216 20.5261 0.37993 20.7433L4.05993 27.1433C4.18564 27.3604 4.41422 27.4861 4.65422 27.4861H19.4199C19.9456 27.4861 20.2771 26.9147 20.0142 26.4576L16.6199 20.5947C16.3571 20.1376 15.6942 20.1376 15.4314 20.5947L12.7914 25.189C12.5285 25.6461 11.8656 25.6461 11.6028 25.189L9.04279 20.7433C8.91707 20.5261 8.91707 20.2747 9.04279 20.0576L15.4314 8.97185C15.6942 8.51471 16.3571 8.51471 16.6199 8.97185L16.6314 8.96042Z" fill="#FF802C"/>
</svg>
