<svg width="37" height="38" viewBox="0 0 37 38" fill="none" xmlns="http://www.w3.org/2000/svg">
<g clip-path="url(#clip0_160_161)">
<path d="M30.6279 27.6894V3.29249L30.6117 3.22774C30.3758 2.28424 29.3571 0.5 27.1894 0.5C25.0218 0.5 24.003 2.28424 23.7672 3.22767L23.751 3.29242V7.22388C23.2003 6.69793 22.429 6.29288 21.3965 6.29288C19.965 6.29288 19.0349 7.07104 18.5001 7.87131C17.9653 7.07104 17.0351 6.29288 15.6036 6.29288C14.5712 6.29288 13.7999 6.69793 13.2492 7.22381V3.29242L13.233 3.22767C12.9971 2.28424 11.9783 0.5 9.81066 0.5C7.64306 0.5 6.62433 2.28424 6.38838 3.22767L6.37219 3.29242V7.99351H7.45618V3.43514C7.55417 3.12107 8.12102 1.58398 9.81066 1.58398C11.5058 1.58398 12.0664 3.11385 12.1651 3.43449V16.1408H8.42757L7.45618 17.1122V9.15207H6.37219V18.4207V33.4823C6.37219 35.5547 7.48017 36.5436 8.40965 37.0084C9.38191 37.4945 10.3493 37.5001 10.3899 37.5001H27.4138L30.6278 34.2861V28.848H29.5438V33.8371L26.9649 36.416H10.39C10.2703 36.416 7.45618 36.3826 7.45618 33.4823V18.6452L8.87656 17.2249H19.0195C19.359 17.3057 21.4337 17.8708 21.4337 19.5794C21.4337 21.2744 19.9039 21.835 19.5832 21.9338H13.0619L12.1651 22.8306V26.5308H13.2491V23.2796L13.5109 23.0178H19.7253L19.79 23.0016C20.7335 22.7657 22.5177 21.747 22.5177 19.5794C22.5177 18.4311 21.9259 17.4691 20.8063 16.7974C20.0108 16.3202 19.2188 16.1581 19.1855 16.1514L19.1328 16.1409H13.249V9.22824C13.3465 8.91548 13.9127 7.37694 15.6034 7.37694C17.2985 7.37694 17.8591 8.90681 17.9579 9.22745V14.3657H19.0419V9.22824C19.1394 8.91548 19.7056 7.37694 21.3963 7.37694C23.0914 7.37694 23.652 8.90673 23.7508 9.22745V16.6829V18.4207H24.8348V3.43478C24.9354 3.10929 25.4968 1.58398 27.1894 1.58398C28.8847 1.58398 29.4452 3.11399 29.5439 3.43449V27.6894H30.6279Z" fill="#26272B"/>
<path d="M9.23132 32.3237H8.68933C8.68933 32.3961 8.69909 33.0504 9.03621 33.7247C9.36884 34.3899 10.0747 35.1829 11.5486 35.1829V34.0989C9.84146 34.0989 9.77527 32.5029 9.77339 32.3209L9.23132 32.3237Z" fill="#231F20"/>
<path d="M15.0243 24.8303H16.1829V25.9142H15.0243V24.8303Z" fill="#231F20"/>
<path d="M17.3414 24.8303H18.5V25.9142H17.3414V24.8303Z" fill="#231F20"/>
</g>
<defs>
<clipPath id="clip0_160_161">
<rect width="37" height="37" fill="white" transform="translate(0 0.5)"/>
</clipPath>
</defs>
</svg>
